<?xml version="1.0" standalone="no"?>
<!DOCTYPE svg PUBLIC "-//W3C//DTD SVG 20010904//EN"
 "http://www.w3.org/TR/2001/REC-SVG-20010904/DTD/svg10.dtd">
<svg version="1.0" xmlns="http://www.w3.org/2000/svg"
 width="184.000000pt" height="184.000000pt" viewBox="0 0 184.000000 184.000000"
 preserveAspectRatio="xMidYMid meet">

<g transform="translate(0.000000,184.000000) scale(0.100000,-0.100000)"
fill="#000000" stroke="none">
<path d="M500 1824 c0 -8 -18 -33 -40 -54 -32 -31 -40 -46 -40 -74 0 -33 2
-36 30 -36 17 0 30 -4 30 -10 0 -5 18 -10 40 -10 22 0 40 -4 40 -10 0 -5 9
-10 20 -10 11 0 20 -2 20 -5 0 -11 -49 -55 -60 -55 -7 0 -29 -18 -50 -40 -21
-22 -45 -40 -52 -40 -7 0 -20 -9 -28 -20 -8 -11 -20 -20 -28 -20 -18 0 -42
-25 -42 -44 0 -9 -4 -16 -10 -16 -5 0 -10 -9 -10 -20 0 -11 -4 -20 -10 -20 -5
0 -10 -9 -10 -20 0 -11 -4 -20 -10 -20 -5 0 -10 -9 -10 -20 0 -11 -4 -20 -10
-20 -5 0 -10 -9 -10 -20 0 -11 -4 -20 -10 -20 -5 0 -10 -13 -10 -30 0 -16 -4
-30 -10 -30 -5 0 -10 -18 -10 -40 0 -22 -4 -40 -10 -40 -5 0 -10 -18 -10 -40
0 -22 -4 -40 -10 -40 -6 0 -10 -27 -10 -60 0 -53 -2 -60 -20 -60 -11 0 -20 -4
-20 -10 0 -5 -9 -10 -20 -10 -11 0 -20 -4 -20 -10 0 -5 -9 -10 -20 -10 -11 0
-20 -4 -20 -10 0 -5 -13 -10 -30 -10 -17 0 -30 -4 -30 -10 0 -5 13 -10 30 -10
17 0 30 5 30 10 0 6 9 10 20 10 11 0 20 5 20 10 0 6 9 10 20 10 11 0 20 5 20
10 0 6 9 10 20 10 16 0 20 -7 20 -30 0 -16 5 -30 10 -30 6 0 10 -7 10 -15 0
-15 42 -65 55 -65 3 0 5 9 5 20 0 11 5 20 10 20 6 0 10 -8 10 -18 0 -10 9 -24
20 -32 28 -20 25 -30 -10 -30 -16 0 -30 -4 -30 -10 0 -5 -13 -10 -30 -10 -16
0 -30 -4 -30 -10 0 -5 -13 -10 -30 -10 -16 0 -30 -4 -30 -10 0 -5 -13 -10 -30
-10 -16 0 -30 -4 -30 -10 0 -5 -12 -10 -26 -10 -27 0 -61 -26 -49 -38 4 -4 10
-1 12 6 3 6 18 12 34 12 16 0 29 5 29 10 0 6 14 10 30 10 17 0 30 5 30 10 0 6
14 10 30 10 17 0 30 5 30 10 0 6 14 10 30 10 17 0 30 5 30 10 0 6 27 10 60 10
33 0 60 4 60 10 0 6 5 10 10 10 6 0 10 -13 10 -30 0 -16 -4 -30 -10 -30 -5 0
-10 -9 -10 -20 0 -11 -4 -20 -10 -20 -5 0 -10 -13 -10 -30 0 -16 -4 -30 -10
-30 -6 0 -10 -33 -10 -80 0 -67 3 -80 16 -80 9 0 29 -13 44 -30 15 -16 31 -30
34 -30 3 0 6 32 6 70 0 40 4 70 10 70 6 0 10 -13 10 -30 0 -16 5 -30 10 -30 6
0 10 -9 10 -20 0 -11 5 -20 10 -20 6 0 10 -9 10 -20 0 -11 5 -20 10 -20 6 0
10 -9 10 -20 0 -26 31 -26 50 0 8 11 22 20 32 20 10 0 18 5 18 10 0 6 14 10
30 10 17 0 30 5 30 10 0 6 9 10 20 10 22 0 28 35 8 43 -10 4 -10 8 1 15 12 9
12 13 -2 26 -8 9 -23 16 -31 16 -9 0 -16 5 -16 10 0 6 -7 10 -15 10 -26 0
-105 86 -105 115 0 14 5 25 10 25 18 0 11 55 -10 70 -11 8 -20 22 -20 32 0 10
-4 18 -10 18 -18 0 -11 32 12 51 l21 19 -21 19 c-20 17 -30 51 -16 51 3 0 19
-13 34 -30 15 -16 35 -30 44 -30 12 0 16 -10 16 -40 0 -33 3 -40 20 -40 11 0
20 5 20 10 0 6 5 10 10 10 6 0 10 -8 10 -18 0 -10 9 -24 20 -32 14 -10 20 -26
20 -52 0 -21 5 -38 10 -38 6 0 10 -22 10 -50 0 -27 5 -50 10 -50 15 0 12 -97
-2 -104 -10 -5 -10 -7 0 -12 6 -3 12 -19 12 -35 0 -22 5 -29 20 -29 11 0 20 5
20 10 0 6 9 10 20 10 11 0 20 5 20 10 0 6 5 10 10 10 6 0 10 -9 10 -20 0 -16
7 -20 30 -20 27 0 30 -3 30 -30 0 -23 -4 -30 -20 -30 -11 0 -20 5 -20 10 0 6
-13 10 -30 10 -16 0 -30 5 -30 10 0 6 -13 10 -30 10 -16 0 -30 -4 -30 -10 0
-5 -9 -10 -20 -10 -29 0 -28 -66 2 -91 11 -11 18 -22 13 -27 -4 -4 -10 -1 -12
6 -3 6 -18 12 -34 12 -16 0 -29 5 -29 10 0 16 -149 13 -166 -4 -16 -17 -19
-46 -4 -46 6 0 10 -7 10 -16 0 -9 13 -29 30 -44 18 -17 30 -38 30 -54 l0 -26
96 0 c95 0 124 9 124 40 0 20 28 40 54 40 14 0 26 5 26 10 0 6 11 10 25 10 32
0 75 41 75 72 0 13 9 30 20 38 11 8 20 22 20 32 0 11 7 18 20 18 11 0 20 5 20
10 0 6 40 10 100 10 60 0 100 -4 100 -10 0 -5 14 -10 30 -10 23 0 30 -4 30
-20 0 -22 35 -29 42 -8 6 17 38 -14 38 -36 0 -9 5 -16 10 -16 6 0 10 -37 10
-90 l0 -90 100 0 100 0 0 80 c0 47 -4 80 -10 80 -5 0 -10 9 -10 20 0 11 -4 20
-10 20 -5 0 -10 9 -10 20 0 11 -4 20 -10 20 -5 0 -10 9 -10 20 0 11 -4 20 -10
20 -5 0 -10 8 -10 18 0 10 -9 24 -20 32 -29 21 -25 30 15 30 29 0 44 -9 80
-45 25 -24 45 -51 45 -60 0 -8 5 -15 10 -15 6 0 10 -7 10 -15 0 -27 127 -145
155 -145 14 0 25 5 25 10 0 6 -11 10 -25 10 -28 0 -135 99 -135 125 0 8 -4 15
-10 15 -5 0 -10 7 -10 15 0 9 -25 40 -55 70 -45 46 -60 55 -90 55 -19 0 -35 5
-35 10 0 6 -16 10 -35 10 -27 0 -44 8 -70 35 -41 40 -42 45 -15 45 11 0 20 5
20 10 0 6 14 10 30 10 27 0 30 3 30 30 0 17 5 30 10 30 6 0 10 -4 10 -10 0 -5
14 -10 30 -10 23 0 30 4 30 20 0 11 5 20 10 20 6 0 10 7 10 16 0 15 23 44 34
44 3 0 6 -9 6 -20 0 -12 7 -20 16 -20 20 0 44 24 44 44 0 9 5 16 10 16 6 0 10
9 10 20 0 11 5 20 10 20 6 0 10 18 10 40 0 22 5 40 10 40 6 0 10 23 10 50 0
28 5 50 10 50 6 0 10 32 10 76 0 90 10 104 74 104 25 0 46 5 46 10 0 6 -22 10
-50 10 -27 0 -50 -4 -50 -10 0 -5 -9 -10 -20 -10 -17 0 -20 7 -20 40 0 22 -4
40 -10 40 -5 0 -10 14 -10 30 0 17 -4 30 -10 30 -5 0 -10 14 -10 30 0 17 -4
30 -10 30 -5 0 -10 9 -10 20 0 17 7 20 40 20 22 0 40 5 40 10 0 6 21 10 46 10
44 0 85 23 69 38 -4 4 -10 1 -12 -5 -3 -8 -24 -13 -54 -13 -27 0 -49 -4 -49
-10 0 -5 -21 -10 -46 -10 -47 0 -74 16 -74 44 0 9 -4 16 -10 16 -5 0 -10 7
-10 15 0 20 -185 205 -205 205 -8 0 -15 5 -15 10 0 6 -9 10 -20 10 -11 0 -20
5 -20 10 0 6 -9 10 -20 10 -11 0 -20 5 -20 10 0 6 -13 10 -30 10 -16 0 -30 5
-30 10 0 6 -22 10 -50 10 -54 0 -61 7 -30 30 11 8 20 21 20 28 0 7 18 31 40
52 22 21 40 41 40 44 0 3 -22 6 -50 6 -46 0 -67 -12 -37 -23 7 -2 8 -8 3 -13
-5 -5 -11 -4 -13 4 -3 6 -13 12 -24 12 -10 0 -19 5 -19 10 0 6 -90 10 -250 10
-160 0 -250 -4 -250 -10 0 -5 -9 -10 -19 -10 -11 0 -21 -6 -24 -12 -2 -8 -8
-9 -13 -4 -5 5 -4 11 4 13 23 9 12 23 -18 23 -21 0 -30 -5 -30 -16z m60 -52
c0 -4 -9 -14 -20 -22 -11 -8 -20 -22 -20 -32 0 -10 -4 -18 -10 -18 -5 0 -10
-9 -10 -20 0 -11 -4 -20 -10 -20 -5 0 -10 9 -10 20 0 11 5 20 10 20 6 0 10 7
10 15 0 9 10 27 23 40 23 24 37 31 37 17z m500 -102 c0 -6 33 -10 80 -10 47 0
80 -4 80 -10 0 -5 14 -10 30 -10 17 0 30 -4 30 -10 0 -5 9 -10 20 -10 11 0 20
-4 20 -10 0 -5 9 -10 20 -10 11 0 20 -4 20 -10 0 -5 7 -10 15 -10 20 0 185
-165 185 -185 0 -8 5 -15 10 -15 6 0 10 -9 10 -20 0 -11 5 -20 10 -20 6 0 10
-9 10 -20 0 -11 5 -20 10 -20 6 0 10 -9 10 -20 0 -11 5 -20 10 -20 6 0 10 -13
10 -30 0 -16 5 -30 10 -30 6 0 10 -13 10 -30 0 -16 5 -30 10 -30 6 0 10 -18
10 -40 0 -22 5 -40 10 -40 6 0 10 -37 10 -90 0 -53 -4 -90 -10 -90 -5 0 -10
-22 -10 -50 0 -27 -4 -50 -10 -50 -5 0 -10 -18 -10 -40 0 -22 -4 -40 -10 -40
-5 0 -10 -9 -10 -20 0 -11 -4 -20 -10 -20 -5 0 -10 -9 -10 -20 0 -11 -4 -20
-10 -20 -5 0 -10 9 -10 19 0 11 -6 21 -12 24 -8 2 -9 8 -4 13 5 5 11 4 13 -3
7 -20 23 -15 23 7 0 11 -4 20 -10 20 -5 0 -10 9 -10 20 0 11 5 20 10 20 6 0
10 -9 10 -20 0 -11 5 -20 10 -20 6 0 10 14 10 30 0 17 -4 30 -10 30 -5 0 -10
9 -10 20 0 11 5 20 10 20 6 0 10 40 10 100 0 60 -4 100 -10 100 -5 0 -10 18
-10 40 0 22 -4 40 -10 40 -5 0 -10 18 -10 40 0 22 -4 40 -10 40 -5 0 -10 9
-10 20 0 11 -4 20 -10 20 -5 0 -10 -9 -10 -20 0 -11 5 -20 10 -20 6 0 10 -18
10 -40 0 -22 5 -40 10 -40 6 0 10 -18 10 -40 0 -22 5 -40 10 -40 6 0 10 -40
10 -100 0 -60 -4 -100 -10 -100 -5 0 -10 -13 -10 -30 0 -16 -4 -30 -10 -30 -5
0 -10 -13 -10 -30 0 -16 -4 -30 -10 -30 -5 0 -10 -8 -10 -18 0 -10 -9 -24 -20
-32 -11 -8 -20 -20 -20 -28 0 -13 -23 -42 -34 -42 -3 0 -6 7 -6 16 0 15 -23
44 -34 44 -3 0 -6 -13 -6 -30 0 -16 -4 -30 -10 -30 -5 0 -10 -9 -10 -20 0 -13
-7 -20 -20 -20 -11 0 -20 -4 -20 -10 0 -5 -9 -10 -20 -10 -11 0 -20 -4 -20
-10 0 -5 -13 -10 -30 -10 -29 0 -30 1 -30 50 0 28 -4 50 -10 50 -5 0 -10 -13
-10 -29 0 -16 -6 -32 -12 -34 -10 -4 -9 -8 2 -16 8 -5 11 -13 8 -17 -4 -3 -15
2 -25 12 -13 12 -14 19 -5 22 6 2 12 17 12 33 0 16 5 29 10 29 6 0 10 14 10
30 0 17 -4 30 -10 30 -5 0 -10 14 -10 30 0 17 -4 30 -10 30 -5 0 -10 9 -10 20
0 11 -4 20 -10 20 -5 0 -10 -9 -10 -20 0 -11 5 -20 10 -20 6 0 10 -37 10 -90
0 -53 -4 -90 -10 -90 -5 0 -10 -9 -10 -20 0 -13 -7 -20 -20 -20 -11 0 -20 -4
-20 -10 0 -5 -4 -10 -10 -10 -5 0 -10 18 -10 40 0 22 -4 40 -10 40 -5 0 -10
18 -10 40 0 22 -4 40 -10 40 -5 0 -10 -18 -10 -40 0 -22 -4 -40 -10 -40 -5 0
-10 -22 -10 -50 0 -27 -3 -50 -6 -50 -20 0 -34 34 -34 84 0 31 -4 56 -10 56
-5 0 -10 9 -10 20 0 11 -4 20 -10 20 -5 0 -10 9 -10 20 0 11 -4 20 -10 20 -5
0 -10 8 -10 18 0 10 -9 24 -20 32 -21 15 -28 50 -10 50 6 0 10 18 10 40 0 22
-4 40 -10 40 -5 0 -10 8 -10 18 0 10 -9 24 -20 32 -17 12 -20 26 -20 82 0 39
-4 68 -10 68 -5 0 -10 14 -10 30 0 17 -4 30 -10 30 -5 0 -10 9 -10 20 0 11 -4
20 -10 20 -5 0 -10 14 -10 30 0 17 -4 30 -10 30 -5 0 -10 8 -10 18 0 10 -9 24
-20 32 -14 10 -20 26 -20 52 0 21 -4 38 -10 38 -5 0 -10 14 -10 30 0 17 -4 30
-10 30 -5 0 -10 18 -10 40 0 22 -4 40 -10 40 -5 0 -10 23 -10 50 0 28 -4 50
-10 50 -5 0 -10 9 -10 20 0 13 7 20 20 20 11 0 20 5 20 10 0 6 14 10 30 10 17
0 30 5 30 10 0 6 23 10 50 10 28 0 50 5 50 10 0 6 33 10 80 10 47 0 80 -4 80
-10z m-480 -140 c0 -16 5 -30 10 -30 6 0 10 -13 10 -30 0 -16 5 -30 10 -30 6
0 10 -8 10 -18 0 -10 9 -24 20 -32 11 -8 20 -22 20 -32 0 -10 7 -18 15 -18 20
0 125 -105 125 -125 0 -8 5 -15 10 -15 6 0 10 -13 10 -30 0 -16 5 -30 10 -30
6 0 10 -9 10 -20 0 -11 5 -20 10 -20 6 0 10 -13 10 -30 0 -16 5 -30 10 -30 6
0 10 -30 10 -70 0 -40 -4 -70 -10 -70 -5 0 -10 -7 -10 -16 0 -15 -23 -44 -34
-44 -3 0 -6 32 -6 70 0 40 -4 70 -10 70 -5 0 -10 9 -10 20 0 11 -4 20 -10 20
-5 0 -10 -9 -10 -20 0 -11 -4 -20 -10 -20 -6 0 -10 -38 -10 -95 l0 -96 -35
-34 c-40 -41 -45 -42 -45 -15 0 13 -7 20 -20 20 -11 0 -20 -4 -20 -10 0 -5 -4
-10 -10 -10 -5 0 -10 18 -10 40 0 36 -2 40 -25 40 -26 0 -75 39 -75 60 0 11
-45 60 -55 60 -3 0 -5 -18 -5 -40 0 -22 5 -40 10 -40 6 0 10 9 10 20 0 11 5
20 10 20 6 0 10 -9 10 -20 0 -11 -4 -20 -10 -20 -18 0 -11 -32 11 -51 19 -16
20 -20 6 -34 -9 -8 -21 -15 -28 -15 -6 0 -20 -9 -30 -21 l-18 -21 -26 26 c-14
14 -25 31 -25 38 0 8 -9 20 -20 28 -11 8 -20 22 -20 32 0 10 -4 18 -10 18 -5
0 -10 -18 -10 -40 0 -22 5 -40 10 -40 6 0 10 -7 10 -16 0 -19 28 -49 38 -40 3
4 0 11 -8 16 -8 5 -11 12 -8 16 4 3 15 -2 25 -12 13 -12 14 -19 5 -22 -6 -2
-12 -12 -12 -23 0 -10 -7 -19 -15 -19 -19 0 -65 44 -65 62 0 8 -9 20 -20 28
-11 8 -20 22 -20 32 0 10 -4 18 -10 18 -5 0 -10 23 -10 50 0 28 -4 50 -10 50
-5 0 -10 -22 -10 -50 0 -27 5 -50 10 -50 6 0 10 -13 10 -30 0 -16 -4 -30 -10
-30 -5 0 -10 9 -10 20 0 11 -4 20 -10 20 -6 0 -10 40 -10 100 0 60 4 100 10
100 6 0 10 18 10 40 0 22 5 40 10 40 6 0 10 18 10 40 0 22 5 40 10 40 6 0 10
14 10 30 0 17 5 30 10 30 6 0 10 9 10 20 0 11 5 20 10 20 6 0 10 9 10 20 0 11
5 20 10 20 6 0 10 9 10 20 0 11 5 20 10 20 6 0 10 9 10 20 0 11 5 20 10 20 6
0 10 9 10 20 0 13 7 20 18 20 10 0 24 9 32 20 8 11 21 20 28 20 7 0 31 18 52
40 21 22 46 40 54 40 9 0 16 5 16 10 0 6 5 10 10 10 6 0 10 -13 10 -30z m220
-630 c0 -92 12 -102 60 -50 32 35 60 39 60 10 0 -11 5 -20 10 -20 6 0 10 -18
10 -40 0 -22 -3 -40 -6 -40 -10 0 -34 28 -34 40 0 17 -30 44 -38 35 -4 -4 -1
-10 6 -12 6 -3 12 -13 12 -24 0 -10 5 -19 10 -19 14 0 12 -37 -2 -44 -10 -5
-10 -7 0 -12 6 -3 12 -14 12 -25 0 -10 5 -19 10 -19 6 0 10 -9 10 -20 0 -11 5
-20 10 -20 6 0 10 -9 10 -20 0 -11 5 -20 10 -20 6 0 10 -18 10 -40 0 -22 5
-40 10 -40 6 0 10 -30 10 -70 0 -63 -2 -70 -20 -70 -22 0 -27 -16 -7 -23 7 -2
8 -8 3 -13 -5 -5 -11 -4 -13 4 -3 6 -13 12 -24 12 -23 0 -24 -6 -5 -26 16 -16
86 -19 86 -4 0 6 9 10 20 10 11 0 20 5 20 10 0 6 14 10 30 10 17 0 30 5 30 10
0 6 9 10 20 10 11 0 20 5 20 10 0 6 9 10 20 10 11 0 20 5 20 10 0 6 8 10 18
10 10 0 24 9 32 20 11 15 26 20 58 20 38 0 49 -5 82 -40 21 -22 46 -40 54 -40
9 0 16 -2 16 -5 0 -13 -50 -55 -65 -55 -8 0 -15 -4 -15 -10 0 -5 -13 -10 -30
-10 -16 0 -30 -4 -30 -10 0 -5 -13 -10 -30 -10 -16 0 -30 5 -30 10 0 6 -40 10
-100 10 -60 0 -100 -4 -100 -10 0 -5 -9 -10 -19 -10 -11 0 -21 -6 -24 -12 -3
-9 -11 -5 -26 11 -11 13 -24 21 -29 16 -4 -4 -1 -10 6 -12 21 -8 14 -43 -8
-43 -11 0 -20 -4 -20 -10 0 -5 -9 -10 -20 -10 -11 0 -20 4 -20 8 0 4 9 14 20
22 35 25 18 90 -24 90 -9 0 -16 8 -16 20 0 11 -4 20 -10 20 -5 0 -10 18 -10
40 0 22 -4 40 -10 40 -5 0 -10 14 -10 30 0 17 -4 30 -10 30 -5 0 -10 14 -10
30 0 17 -4 30 -10 30 -5 0 -10 14 -10 30 0 17 -4 30 -10 30 -5 0 -10 -13 -10
-30 0 -16 5 -30 10 -30 6 0 10 -13 10 -30 0 -16 5 -30 10 -30 6 0 10 -13 10
-30 0 -16 5 -30 10 -30 6 0 10 -22 10 -50 0 -43 -3 -50 -20 -50 -11 0 -20 -4
-20 -10 0 -5 -4 -10 -10 -10 -6 0 -10 33 -10 80 0 47 -4 80 -10 80 -5 0 -10
23 -10 50 0 28 -4 50 -10 50 -5 0 -10 18 -10 40 0 22 -4 40 -10 40 -22 0 -8
34 30 70 l40 38 0 96 c0 57 4 96 10 96 6 0 10 -33 10 -80z m-440 -110 c0 -5
-4 -10 -10 -10 -5 0 -10 5 -10 10 0 6 5 10 10 10 6 0 10 -4 10 -10z m126 -64
c8 -8 14 -21 14 -28 0 -8 9 -20 20 -28 21 -15 28 -70 10 -70 -18 0 -11 -55 10
-70 12 -8 20 -26 20 -42 0 -15 5 -28 10 -28 6 0 10 -9 10 -20 0 -11 5 -20 10
-20 6 0 10 -7 10 -16 0 -9 9 -25 21 -35 19 -16 20 -20 6 -34 -9 -8 -21 -15
-28 -15 -6 0 -20 -9 -30 -21 -16 -19 -20 -20 -34 -6 -8 9 -15 23 -15 31 0 9
-4 16 -10 16 -5 0 -10 9 -10 20 0 11 -4 20 -10 20 -5 0 -10 14 -10 30 0 17 -4
30 -10 30 -5 0 -10 9 -10 20 0 24 -6 25 -26 6 -9 -9 -14 -35 -14 -70 0 -31 -2
-56 -5 -56 -3 0 -17 11 -30 25 -22 21 -25 33 -25 90 0 37 4 65 10 65 6 0 10
14 10 30 0 17 5 30 10 30 6 0 10 9 10 20 0 11 5 20 10 20 6 0 10 16 10 35 0
23 8 44 23 60 27 29 25 28 43 11z m449 -11 c14 -13 25 -31 25 -40 0 -8 5 -15
10 -15 6 0 10 -9 10 -20 0 -11 5 -20 10 -20 6 0 10 -9 10 -20 0 -11 5 -20 10
-20 6 0 10 -27 10 -60 0 -33 4 -60 10 -60 6 0 10 -9 10 -20 0 -12 7 -20 16
-20 28 0 44 27 44 74 0 25 5 46 10 46 6 0 10 -22 10 -50 0 -43 3 -50 20 -50
11 0 20 5 20 10 0 6 14 10 30 10 17 0 30 -4 30 -10 0 -5 -9 -10 -20 -10 -11 0
-20 -4 -20 -10 0 -5 -9 -10 -20 -10 -11 0 -20 -4 -20 -10 0 -5 -9 -10 -20 -10
-11 0 -20 -4 -20 -10 0 -5 -13 -10 -30 -10 -16 0 -30 -4 -30 -10 0 -5 -9 -10
-19 -10 -11 0 -21 -6 -24 -12 -2 -8 -8 -9 -13 -4 -5 5 -4 11 4 13 7 3 12 21
12 43 0 21 6 41 13 44 10 5 10 7 0 12 -7 3 -13 19 -13 35 0 16 -4 29 -10 29
-5 0 -10 18 -10 40 0 22 -4 40 -10 40 -5 0 -10 9 -10 20 0 11 -4 20 -10 20 -5
0 -10 9 -10 20 0 11 -4 20 -10 20 -5 0 -10 9 -10 20 0 11 -4 20 -10 20 -5 0
-10 5 -10 10 0 16 9 12 35 -15z m-325 -255 c8 -11 20 -20 28 -20 18 0 42 -25
42 -43 0 -9 6 -17 12 -19 9 -3 8 -9 -4 -22 -17 -16 -19 -16 -43 8 -14 14 -25
32 -25 41 0 8 -4 15 -10 15 -5 0 -10 9 -10 20 0 11 -4 20 -10 20 -5 0 -10 5
-10 10 0 16 15 11 30 -10z"/>
<path d="M1500 770 c0 -40 -4 -70 -10 -70 -5 0 -10 -9 -10 -20 0 -11 -4 -20
-10 -20 -15 0 -12 -29 4 -46 23 -22 26 -17 26 36 0 28 5 50 10 50 6 0 10 30
10 70 0 40 -4 70 -10 70 -6 0 -10 -30 -10 -70z"/>
<path d="M0 370 c0 -5 18 -10 40 -10 22 0 40 -4 40 -10 0 -5 23 -10 50 -10 28
0 50 -4 50 -10 0 -5 7 -10 16 -10 18 0 44 -23 44 -40 0 -16 -47 -60 -65 -60
-8 0 -15 -4 -15 -10 0 -5 -7 -10 -15 -10 -17 0 -150 -128 -141 -137 2 -3 32
22 65 56 33 33 67 61 75 61 9 0 16 5 16 10 0 6 7 10 15 10 18 0 85 64 85 80 0
16 -47 60 -65 60 -8 0 -15 5 -15 10 0 6 -22 10 -50 10 -27 0 -50 5 -50 10 0 6
-18 10 -40 10 -22 0 -40 -4 -40 -10z"/>
<path d="M0 290 c0 -5 9 -10 20 -10 11 0 20 -4 20 -10 0 -5 14 -10 30 -10 17
0 30 -2 30 -5 0 -11 -49 -55 -60 -55 -17 0 -44 -30 -35 -38 4 -4 10 -1 12 6 3
6 11 12 19 12 8 0 31 16 50 35 31 31 33 37 20 50 -8 8 -26 15 -40 15 -14 0
-26 5 -26 10 0 6 -9 10 -20 10 -11 0 -20 -4 -20 -10z"/>
<path d="M1340 190 c0 -16 5 -30 10 -30 6 0 10 -33 10 -80 0 -47 4 -80 10 -80
6 0 10 33 10 80 0 47 -4 80 -10 80 -5 0 -10 14 -10 30 0 17 -4 30 -10 30 -5 0
-10 -13 -10 -30z"/>
<path d="M360 130 c0 -5 -9 -10 -20 -10 -11 0 -20 -4 -20 -10 0 -5 -9 -10 -20
-10 -11 0 -20 -4 -20 -10 0 -5 -13 -10 -30 -10 -16 0 -30 -4 -30 -10 0 -6 -27
-10 -60 -10 -33 0 -60 -4 -60 -10 0 -5 -22 -10 -50 -10 -27 0 -50 -4 -50 -10
0 -5 23 -10 50 -10 28 0 50 5 50 10 0 6 27 10 60 10 33 0 60 4 60 10 0 6 14
10 30 10 17 0 30 5 30 10 0 6 9 10 20 10 11 0 20 5 20 10 0 6 9 10 20 10 11 0
20 5 20 10 0 15 29 12 46 -4 21 -21 17 -35 -17 -67 -18 -16 -29 -32 -26 -35 7
-8 77 62 77 76 0 16 -47 60 -65 60 -8 0 -15 -4 -15 -10z"/>
<path d="M300 50 c0 -5 -13 -10 -30 -10 -16 0 -30 -4 -30 -10 0 -5 -18 -10
-40 -10 -22 0 -40 -4 -40 -10 0 -5 18 -10 40 -10 22 0 40 5 40 10 0 14 58 12
62 -2 3 -8 14 -3 31 14 34 34 34 38 -3 38 -16 0 -30 -4 -30 -10z m20 -20 c0
-5 -4 -10 -10 -10 -5 0 -10 5 -10 10 0 6 5 10 10 10 6 0 10 -4 10 -10z"/>
</g>
</svg>
